<?xml version="1.0" encoding="utf-8"?>
<!-- Generator: Adobe Illustrator 17.0.0, SVG Export Plug-In . SVG Version: 6.00 Build 0)  -->
<!DOCTYPE svg PUBLIC "-//W3C//DTD SVG 1.1//EN" "http://www.w3.org/Graphics/SVG/1.1/DTD/svg11.dtd">
<svg version="1.1" id="Слой_1" xmlns="http://www.w3.org/2000/svg" xmlns:xlink="http://www.w3.org/1999/xlink" x="0px" y="0px"
	 width="267.149px" height="107.331px" viewBox="0 0 267.149 107.331" enable-background="new 0 0 267.149 107.331"
	 xml:space="preserve">
<g>
	<g>
		<g>
			<path fill="#D52169" d="M87.78,2.373C80.267-2.252,70.472,0.09,65.848,7.602s-2.283,17.307,5.151,21.932
				c1.132,0.683,2.283,1.21,3.493,1.6L64.326,62.626c-4.78-2.498-10.244-2.361-14.712,0L33.146,37.67
				c0.605-0.761,1.054-1.6,1.444-2.498c2.205-5.307-0.312-11.376-5.619-13.58s-11.376,0.312-13.58,5.619
				c-2.127,5.151,0.234,11.083,5.307,13.346L8.268,77.709c-3.493,0.234-6.673,2.576-7.824,6.068
				c-1.522,4.702,0.995,9.717,5.698,11.219c4.702,1.522,9.717-0.995,11.219-5.698c1.444-4.41-0.761-9.112-4.937-10.927
				l12.371-36.956c1.737,0,3.571-0.371,5.093-1.21l16.234,24.878c-0.995,0.917-1.893,2.049-2.654,3.259
				c-4.624,7.434-2.283,17.229,5.151,21.854c7.434,4.624,17.229,2.283,21.854-5.151c4.019-6.517,2.81-14.79-2.576-19.883
				l10.771-33.307c5.541,0.234,11.083-2.419,14.263-7.512C97.575,16.851,95.214,6.997,87.78,2.373z"/>
		</g>
		<g>
		</g>
		<g>
		</g>
		<g>
		</g>
		<g>
		</g>
		<g>
		</g>
		<g>
		</g>
		<g>
		</g>
		<g>
		</g>
		<g>
		</g>
		<g>
		</g>
		<g>
		</g>
		<g>
		</g>
		<g>
		</g>
		<g>
		</g>
		<g>
		</g>
	</g>
	<g>
		<path fill="#009FDD" d="M79.193,98.495c-5.976,5.834-13.359,8.751-22.152,8.751c-8.793,0-16.179-2.917-22.153-8.751
			c-5.975-5.834-8.962-13.105-8.962-21.814s2.987-15.98,8.962-21.814c5.974-5.834,13.359-8.751,22.153-8.751
			c8.793,0,16.177,2.917,22.152,8.751c5.974,5.834,8.962,13.105,8.962,21.814S85.167,92.661,79.193,98.495z M71.879,61.504
			c-4.031-4.171-8.977-6.257-14.838-6.257c-5.863,0-10.81,2.086-14.839,6.257c-4.031,4.172-6.045,9.23-6.045,15.177
			c0,5.948,2.015,11.007,6.045,15.177c4.029,4.173,8.976,6.257,14.839,6.257c5.862,0,10.808-2.084,14.838-6.257
			c4.03-4.17,6.045-9.229,6.045-15.177C77.924,70.734,75.909,65.676,71.879,61.504z"/>
		<path fill="#5B5B5B" d="M100.754,106.654V47.553h9.977v49.632h26.972v9.47H100.754z"/>
		<path fill="#5B5B5B" d="M189.532,77.907h9.977v20.207c-5.581,6.145-13.558,9.217-23.928,9.217c-8.738,0-16.052-2.875-21.941-8.625
			c-5.891-5.749-8.836-13.021-8.836-21.813c0-8.794,3.002-16.12,9.005-21.983c6.003-5.862,13.26-8.794,21.772-8.794
			c8.511,0,15.585,2.481,21.222,7.44l-5.327,7.61c-2.312-1.973-4.637-3.34-6.976-4.101c-2.339-0.762-5.06-1.142-8.159-1.142
			c-5.975,0-10.991,1.932-15.05,5.791c-4.059,3.862-6.088,8.936-6.088,15.22c0,6.286,1.973,11.33,5.918,15.135
			c3.945,3.805,8.722,5.707,14.332,5.707c5.608,0,10.301-1.211,14.078-3.636V77.907z"/>
		<path fill="#5B5B5B" d="M220.984,93.211l-5.919,13.443h-10.653l26.042-59.102h10.653l26.041,59.102h-10.653l-5.918-13.443H220.984
			z M246.518,83.994L235.78,59.643l-10.738,24.351H246.518z"/>
	</g>
</g>
</svg>
